<svg width="448" height="223" viewBox="0 0 448 223" fill="none" xmlns="http://www.w3.org/2000/svg">
<path d="M23.768 156L40.024 71.52H68.184L51.672 156H23.768ZM148.747 112.48C142.603 125.963 139.531 140.512 139.531 156.128C137.227 157.749 134.368 158.56 130.955 158.56C127.627 158.56 124.896 157.749 122.763 156.128C120.63 154.592 119.35 153.013 118.923 151.392C116.79 153.611 113.974 155.36 110.475 156.64C107.062 157.92 103.52 158.56 99.851 158.56C96.1817 158.56 92.7257 157.963 89.483 156.768C86.3257 155.573 83.5097 153.653 81.035 151.008C75.5737 145.205 72.843 136.8 72.843 125.792C72.843 108.725 77.4083 95.072 86.539 84.832C95.9257 74.2507 108.939 68.96 125.579 68.96C137.099 68.96 144.907 71.9467 149.003 77.92C150.283 79.7973 150.923 81.888 150.923 84.192C150.923 86.4107 150.411 88.5013 149.387 90.464C148.448 92.3413 147.211 94.048 145.675 95.584C142.006 98.9973 137.91 100.704 133.387 100.704C131.595 100.704 129.846 100.405 128.139 99.808C128.48 97.248 128.651 94.4747 128.651 91.488C128.651 88.5013 128.523 86.3253 128.267 84.96C128.096 83.5947 127.755 82.3573 127.243 81.248C126.134 78.944 124.342 77.792 121.867 77.792C119.478 77.792 116.918 79.1147 114.187 81.76C111.542 84.32 109.152 87.7333 107.019 92C102.326 101.557 99.979 112.096 99.979 123.616C99.979 128.907 101.003 133.429 103.051 137.184C105.27 141.28 108.342 143.328 112.267 143.328C113.632 143.328 114.912 142.987 116.107 142.304C117.387 141.621 118.283 141.024 118.795 140.512L122.891 114.784L148.747 112.48ZM154.155 156L169.515 71.52H197.035L217.003 129.632L227.627 71.52L241.835 71.648L226.219 156H196.907L178.475 100.064L168.235 156H154.155ZM243.643 156L259.899 71.52H288.059L271.547 156H243.643ZM301.166 93.664C298.265 91.4453 296.814 87.9893 296.814 83.296C296.814 78.5173 298.35 74.8907 301.422 72.416C304.579 69.9413 308.846 68.704 314.222 68.704C317.635 68.704 323.395 69.3013 331.502 70.496L340.206 71.776C343.107 72.1173 346.051 72.288 349.038 72.288C352.11 72.288 354.67 71.648 356.718 70.368C359.79 73.0987 361.326 76.4267 361.326 80.352C361.326 84.2773 359.577 87.648 356.078 90.464C352.494 93.4507 348.398 94.944 343.79 94.944C341.571 94.944 338.67 94.6453 335.086 94.048C330.905 107.189 328.814 118.325 328.814 127.456C328.814 136.587 331.118 143.541 335.726 148.32C333.593 152.16 330.947 154.805 327.79 156.256C324.633 157.792 320.665 158.56 315.886 158.56C311.193 158.56 307.353 157.28 304.366 154.72C301.465 152.075 300.014 148.064 300.014 142.688C300.014 136.459 301.721 128.224 305.134 117.984C308.547 107.829 312.814 98.8693 317.934 91.104C315.459 90.848 312.942 90.72 310.382 90.72C305.091 90.72 302.019 91.7013 301.166 93.664ZM411.832 136.288C413.453 138.336 414.264 141.024 414.264 144.352C414.264 148.96 412.557 152.501 409.144 154.976C405.731 157.365 401.336 158.56 395.96 158.56C392.888 158.56 389.005 158.219 384.312 157.536C375.096 156.085 369.08 155.36 366.264 155.36C363.448 155.36 361.485 155.445 360.376 155.616C359.267 155.701 357.816 155.829 356.024 156L371.768 71.52H426.936C426.936 76.7253 425.656 80.6933 423.096 83.424C420.621 86.1547 416.909 87.52 411.96 87.52C407.011 87.52 402.019 86.368 396.984 84.064L393.016 106.464H415.8C415.8 110.987 414.691 114.528 412.472 117.088C410.253 119.563 407.267 120.8 403.512 120.8C399.843 120.8 396.856 120.373 394.552 119.52C392.248 118.667 390.968 118.112 390.712 117.856L386.104 142.048C388.152 142.304 391.096 142.432 394.936 142.432C401.507 142.432 407.139 140.384 411.832 136.288Z" fill="#39E3C7"/>
</svg>
